<?xml version="1.0" encoding="utf-8"?>
<!-- Generator: Adobe Illustrator 16.0.0, SVG Export Plug-In . SVG Version: 6.00 Build 0)  -->
<!DOCTYPE svg PUBLIC "-//W3C//DTD SVG 1.1//EN" "http://www.w3.org/Graphics/SVG/1.1/DTD/svg11.dtd">
<svg version="1.1" xmlns="http://www.w3.org/2000/svg" xmlns:xlink="http://www.w3.org/1999/xlink" x="0px" y="0px" width="200px"
	 height="150px" viewBox="0 0 200 150" enable-background="new 0 0 200 150" xml:space="preserve">
<g id="Capa_1">
</g>
<g id="Capa_2">
	<path fill="#0d6efd" stroke="#0d6efd" stroke-width="3" stroke-miterlimit="10" d="M47.61,52.61c0,0-6.12-15.69,10.22-11.8l33.82,27.6
		c0,0,8.25,6.17-0.57,12.8L62.4,108.48l-3.46,2.69c0,0-13.62,3.08-10.42-11.2l26.11-24.92L47.61,52.61z"/>
	<path fill="#0d6efd" stroke="#0d6efd" stroke-width="3" stroke-miterlimit="10" d="M93.66,96.33c0,0-10.84,4.61,0,12.67h44.75c0,0,11-5.76,0-12.67
		H93.66z"/>
	<path fill="none" stroke="#0d6efd" stroke-width="5" stroke-miterlimit="10" d="M47.73,25.57c0,0-9.55,0.21-13.73,12.16v73.06
		c0,0,3.38,11.16,11.12,12.78h98.24c0,0,7.84-0.31,12.95-11.2V37.72c0,0-1.02-10.44-12.95-12.16H47.73z"/>
</g>
</svg>
